<svg xmlns="http://www.w3.org/2000/svg" xmlns:xlink="http://www.w3.org/1999/xlink" width="643.975" height="403.408" version="1.1" viewBox="0 0 482.981 302.556"><defs><style type="text/css">*{stroke-linecap:butt;stroke-linejoin:round}</style></defs><g id="figure_1"><g id="patch_1"><path d="M 0 302.55625 L 482.98125 302.55625 L 482.98125 0 L 0 0 z" style="fill:#fff"/></g><g id="axes_1"><g id="patch_2"><path d="M 36.58125 272.2 L 482.98125 272.2 L 482.98125 50.44 L 36.58125 50.44 z" style="fill:#fff"/></g><g id="matplotlib.axis_1"><g id="xtick_1"><g id="line2d_1"><defs><path id="mffe0bf8489" d="M 0 0 L 0 3.5" style="stroke:#000;stroke-width:.8"/></defs><g><use style="stroke:#000;stroke-width:.8" x="56.872" y="272.2" xlink:href="#mffe0bf8489"/></g></g><g id="text_1"><defs><path id="DejaVuSans-48" d="M 31.78125 66.40625 Q 24.171875 66.40625 20.328125 58.90625 Q 16.5 51.421875 16.5 36.375 Q 16.5 21.390625 20.328125 13.890625 Q 24.171875 6.390625 31.78125 6.390625 Q 39.453125 6.390625 43.28125 13.890625 Q 47.125 21.390625 47.125 36.375 Q 47.125 51.421875 43.28125 58.90625 Q 39.453125 66.40625 31.78125 66.40625 z M 31.78125 74.21875 Q 44.046875 74.21875 50.515625 64.515625 Q 56.984375 54.828125 56.984375 36.375 Q 56.984375 17.96875 50.515625 8.265625 Q 44.046875 -1.421875 31.78125 -1.421875 Q 19.53125 -1.421875 13.0625 8.265625 Q 6.59375 17.96875 6.59375 36.375 Q 6.59375 54.828125 13.0625 64.515625 Q 19.53125 74.21875 31.78125 74.21875 z"/></defs><g transform="translate(53.690909 286.798437)scale(0.1 -0.1)"><use xlink:href="#DejaVuSans-48"/></g></g></g><g id="xtick_2"><g id="line2d_2"><g><use style="stroke:#000;stroke-width:.8" x="138.856" y="272.2" xlink:href="#mffe0bf8489"/></g></g><g id="text_2"><defs><path id="DejaVuSans-50" d="M 19.1875 8.296875 L 53.609375 8.296875 L 53.609375 0 L 7.328125 0 L 7.328125 8.296875 Q 12.9375 14.109375 22.625 23.890625 Q 32.328125 33.6875 34.8125 36.53125 Q 39.546875 41.84375 41.421875 45.53125 Q 43.3125 49.21875 43.3125 52.78125 Q 43.3125 58.59375 39.234375 62.25 Q 35.15625 65.921875 28.609375 65.921875 Q 23.96875 65.921875 18.8125 64.3125 Q 13.671875 62.703125 7.8125 59.421875 L 7.8125 69.390625 Q 13.765625 71.78125 18.9375 73 Q 24.125 74.21875 28.421875 74.21875 Q 39.75 74.21875 46.484375 68.546875 Q 53.21875 62.890625 53.21875 53.421875 Q 53.21875 48.921875 51.53125 44.890625 Q 49.859375 40.875 45.40625 35.40625 Q 44.1875 33.984375 37.640625 27.21875 Q 31.109375 20.453125 19.1875 8.296875 z"/></defs><g transform="translate(132.49313 286.798437)scale(0.1 -0.1)"><use xlink:href="#DejaVuSans-50"/><use x="63.623" xlink:href="#DejaVuSans-48"/></g></g></g><g id="xtick_3"><g id="line2d_3"><g><use style="stroke:#000;stroke-width:.8" x="220.839" y="272.2" xlink:href="#mffe0bf8489"/></g></g><g id="text_3"><defs><path id="DejaVuSans-52" d="M 37.796875 64.3125 L 12.890625 25.390625 L 37.796875 25.390625 z M 35.203125 72.90625 L 47.609375 72.90625 L 47.609375 25.390625 L 58.015625 25.390625 L 58.015625 17.1875 L 47.609375 17.1875 L 47.609375 0 L 37.796875 0 L 37.796875 17.1875 L 4.890625 17.1875 L 4.890625 26.703125 z"/></defs><g transform="translate(214.476601 286.798437)scale(0.1 -0.1)"><use xlink:href="#DejaVuSans-52"/><use x="63.623" xlink:href="#DejaVuSans-48"/></g></g></g><g id="xtick_4"><g id="line2d_4"><g><use style="stroke:#000;stroke-width:.8" x="302.823" y="272.2" xlink:href="#mffe0bf8489"/></g></g><g id="text_4"><defs><path id="DejaVuSans-54" d="M 33.015625 40.375 Q 26.375 40.375 22.484375 35.828125 Q 18.609375 31.296875 18.609375 23.390625 Q 18.609375 15.53125 22.484375 10.953125 Q 26.375 6.390625 33.015625 6.390625 Q 39.65625 6.390625 43.53125 10.953125 Q 47.40625 15.53125 47.40625 23.390625 Q 47.40625 31.296875 43.53125 35.828125 Q 39.65625 40.375 33.015625 40.375 z M 52.59375 71.296875 L 52.59375 62.3125 Q 48.875 64.0625 45.09375 64.984375 Q 41.3125 65.921875 37.59375 65.921875 Q 27.828125 65.921875 22.671875 59.328125 Q 17.53125 52.734375 16.796875 39.40625 Q 19.671875 43.65625 24.015625 45.921875 Q 28.375 48.1875 33.59375 48.1875 Q 44.578125 48.1875 50.953125 41.515625 Q 57.328125 34.859375 57.328125 23.390625 Q 57.328125 12.15625 50.6875 5.359375 Q 44.046875 -1.421875 33.015625 -1.421875 Q 20.359375 -1.421875 13.671875 8.265625 Q 6.984375 17.96875 6.984375 36.375 Q 6.984375 53.65625 15.1875 63.9375 Q 23.390625 74.21875 37.203125 74.21875 Q 40.921875 74.21875 44.703125 73.484375 Q 48.484375 72.75 52.59375 71.296875 z"/></defs><g transform="translate(296.460072 286.798437)scale(0.1 -0.1)"><use xlink:href="#DejaVuSans-54"/><use x="63.623" xlink:href="#DejaVuSans-48"/></g></g></g><g id="xtick_5"><g id="line2d_5"><g><use style="stroke:#000;stroke-width:.8" x="384.806" y="272.2" xlink:href="#mffe0bf8489"/></g></g><g id="text_5"><defs><path id="DejaVuSans-56" d="M 31.78125 34.625 Q 24.75 34.625 20.71875 30.859375 Q 16.703125 27.09375 16.703125 20.515625 Q 16.703125 13.921875 20.71875 10.15625 Q 24.75 6.390625 31.78125 6.390625 Q 38.8125 6.390625 42.859375 10.171875 Q 46.921875 13.96875 46.921875 20.515625 Q 46.921875 27.09375 42.890625 30.859375 Q 38.875 34.625 31.78125 34.625 z M 21.921875 38.8125 Q 15.578125 40.375 12.03125 44.71875 Q 8.5 49.078125 8.5 55.328125 Q 8.5 64.0625 14.71875 69.140625 Q 20.953125 74.21875 31.78125 74.21875 Q 42.671875 74.21875 48.875 69.140625 Q 55.078125 64.0625 55.078125 55.328125 Q 55.078125 49.078125 51.53125 44.71875 Q 48 40.375 41.703125 38.8125 Q 48.828125 37.15625 52.796875 32.3125 Q 56.78125 27.484375 56.78125 20.515625 Q 56.78125 9.90625 50.3125 4.234375 Q 43.84375 -1.421875 31.78125 -1.421875 Q 19.734375 -1.421875 13.25 4.234375 Q 6.78125 9.90625 6.78125 20.515625 Q 6.78125 27.484375 10.78125 32.3125 Q 14.796875 37.15625 21.921875 38.8125 z M 18.3125 54.390625 Q 18.3125 48.734375 21.84375 45.5625 Q 25.390625 42.390625 31.78125 42.390625 Q 38.140625 42.390625 41.71875 45.5625 Q 45.3125 48.734375 45.3125 54.390625 Q 45.3125 60.0625 41.71875 63.234375 Q 38.140625 66.40625 31.78125 66.40625 Q 25.390625 66.40625 21.84375 63.234375 Q 18.3125 60.0625 18.3125 54.390625 z"/></defs><g transform="translate(378.443543 286.798437)scale(0.1 -0.1)"><use xlink:href="#DejaVuSans-56"/><use x="63.623" xlink:href="#DejaVuSans-48"/></g></g></g><g id="xtick_6"><g id="line2d_6"><g><use style="stroke:#000;stroke-width:.8" x="466.79" y="272.2" xlink:href="#mffe0bf8489"/></g></g><g id="text_6"><defs><path id="DejaVuSans-49" d="M 12.40625 8.296875 L 28.515625 8.296875 L 28.515625 63.921875 L 10.984375 60.40625 L 10.984375 69.390625 L 28.421875 72.90625 L 38.28125 72.90625 L 38.28125 8.296875 L 54.390625 8.296875 L 54.390625 0 L 12.40625 0 z"/></defs><g transform="translate(457.245764 286.798437)scale(0.1 -0.1)"><use xlink:href="#DejaVuSans-49"/><use x="63.623" xlink:href="#DejaVuSans-48"/><use x="127.246" xlink:href="#DejaVuSans-48"/></g></g></g><g id="text_7"><defs><path id="DejaVuSans-73" d="M 9.8125 72.90625 L 19.671875 72.90625 L 19.671875 0 L 9.8125 0 z"/><path id="DejaVuSans-110" d="M 54.890625 33.015625 L 54.890625 0 L 45.90625 0 L 45.90625 32.71875 Q 45.90625 40.484375 42.875 44.328125 Q 39.84375 48.1875 33.796875 48.1875 Q 26.515625 48.1875 22.3125 43.546875 Q 18.109375 38.921875 18.109375 30.90625 L 18.109375 0 L 9.078125 0 L 9.078125 54.6875 L 18.109375 54.6875 L 18.109375 46.1875 Q 21.34375 51.125 25.703125 53.5625 Q 30.078125 56 35.796875 56 Q 45.21875 56 50.046875 50.171875 Q 54.890625 44.34375 54.890625 33.015625 z"/><path id="DejaVuSans-100" d="M 45.40625 46.390625 L 45.40625 75.984375 L 54.390625 75.984375 L 54.390625 0 L 45.40625 0 L 45.40625 8.203125 Q 42.578125 3.328125 38.25 0.953125 Q 33.9375 -1.421875 27.875 -1.421875 Q 17.96875 -1.421875 11.734375 6.484375 Q 5.515625 14.40625 5.515625 27.296875 Q 5.515625 40.1875 11.734375 48.09375 Q 17.96875 56 27.875 56 Q 33.9375 56 38.25 53.625 Q 42.578125 51.265625 45.40625 46.390625 z M 14.796875 27.296875 Q 14.796875 17.390625 18.875 11.75 Q 22.953125 6.109375 30.078125 6.109375 Q 37.203125 6.109375 41.296875 11.75 Q 45.40625 17.390625 45.40625 27.296875 Q 45.40625 37.203125 41.296875 42.84375 Q 37.203125 48.484375 30.078125 48.484375 Q 22.953125 48.484375 18.875 42.84375 Q 14.796875 37.203125 14.796875 27.296875 z"/><path id="DejaVuSans-101" d="M 56.203125 29.59375 L 56.203125 25.203125 L 14.890625 25.203125 Q 15.484375 15.921875 20.484375 11.0625 Q 25.484375 6.203125 34.421875 6.203125 Q 39.59375 6.203125 44.453125 7.46875 Q 49.3125 8.734375 54.109375 11.28125 L 54.109375 2.78125 Q 49.265625 0.734375 44.1875 -0.34375 Q 39.109375 -1.421875 33.890625 -1.421875 Q 20.796875 -1.421875 13.15625 6.1875 Q 5.515625 13.8125 5.515625 26.8125 Q 5.515625 40.234375 12.765625 48.109375 Q 20.015625 56 32.328125 56 Q 43.359375 56 49.78125 48.890625 Q 56.203125 41.796875 56.203125 29.59375 z M 47.21875 32.234375 Q 47.125 39.59375 43.09375 43.984375 Q 39.0625 48.390625 32.421875 48.390625 Q 24.90625 48.390625 20.390625 44.140625 Q 15.875 39.890625 15.1875 32.171875 z"/><path id="DejaVuSans-120" d="M 54.890625 54.6875 L 35.109375 28.078125 L 55.90625 0 L 45.3125 0 L 29.390625 21.484375 L 13.484375 0 L 2.875 0 L 24.125 28.609375 L 4.6875 54.6875 L 15.28125 54.6875 L 29.78125 35.203125 L 44.28125 54.6875 z"/></defs><g transform="translate(245.928125 300.476562)scale(0.1 -0.1)"><use xlink:href="#DejaVuSans-73"/><use x="29.492" xlink:href="#DejaVuSans-110"/><use x="92.871" xlink:href="#DejaVuSans-100"/><use x="156.348" xlink:href="#DejaVuSans-101"/><use x="217.855" xlink:href="#DejaVuSans-120"/></g></g></g><g id="matplotlib.axis_2"><g id="ytick_1"><g id="line2d_7"><defs><path id="mc2022aa750" d="M 0 0 L -3.5 0" style="stroke:#000;stroke-width:.8"/></defs><g><use style="stroke:#000;stroke-width:.8" x="36.581" y="225.009" xlink:href="#mc2022aa750"/></g></g><g id="text_8"><defs><path id="DejaVuSans-46" d="M 10.6875 12.40625 L 21 12.40625 L 21 0 L 10.6875 0 z"/></defs><g transform="translate(13.678125 228.808293)scale(0.1 -0.1)"><use xlink:href="#DejaVuSans-48"/><use x="63.623" xlink:href="#DejaVuSans-46"/><use x="95.41" xlink:href="#DejaVuSans-52"/></g></g></g><g id="ytick_2"><g id="line2d_8"><g><use style="stroke:#000;stroke-width:.8" x="36.581" y="176.969" xlink:href="#mc2022aa750"/></g></g><g id="text_9"><g transform="translate(13.678125 180.76826)scale(0.1 -0.1)"><use xlink:href="#DejaVuSans-48"/><use x="63.623" xlink:href="#DejaVuSans-46"/><use x="95.41" xlink:href="#DejaVuSans-54"/></g></g></g><g id="ytick_3"><g id="line2d_9"><g><use style="stroke:#000;stroke-width:.8" x="36.581" y="128.929" xlink:href="#mc2022aa750"/></g></g><g id="text_10"><g transform="translate(13.678125 132.728226)scale(0.1 -0.1)"><use xlink:href="#DejaVuSans-48"/><use x="63.623" xlink:href="#DejaVuSans-46"/><use x="95.41" xlink:href="#DejaVuSans-56"/></g></g></g><g id="ytick_4"><g id="line2d_10"><g><use style="stroke:#000;stroke-width:.8" x="36.581" y="80.889" xlink:href="#mc2022aa750"/></g></g><g id="text_11"><g transform="translate(13.678125 84.688193)scale(0.1 -0.1)"><use xlink:href="#DejaVuSans-49"/><use x="63.623" xlink:href="#DejaVuSans-46"/><use x="95.41" xlink:href="#DejaVuSans-48"/></g></g></g><g id="text_12"><defs><path id="DejaVuSans-80" d="M 19.671875 64.796875 L 19.671875 37.40625 L 32.078125 37.40625 Q 38.96875 37.40625 42.71875 40.96875 Q 46.484375 44.53125 46.484375 51.125 Q 46.484375 57.671875 42.71875 61.234375 Q 38.96875 64.796875 32.078125 64.796875 z M 9.8125 72.90625 L 32.078125 72.90625 Q 44.34375 72.90625 50.609375 67.359375 Q 56.890625 61.8125 56.890625 51.125 Q 56.890625 40.328125 50.609375 34.8125 Q 44.34375 29.296875 32.078125 29.296875 L 19.671875 29.296875 L 19.671875 0 L 9.8125 0 z"/><path id="DejaVuSans-97" d="M 34.28125 27.484375 Q 23.390625 27.484375 19.1875 25 Q 14.984375 22.515625 14.984375 16.5 Q 14.984375 11.71875 18.140625 8.90625 Q 21.296875 6.109375 26.703125 6.109375 Q 34.1875 6.109375 38.703125 11.40625 Q 43.21875 16.703125 43.21875 25.484375 L 43.21875 27.484375 z M 52.203125 31.203125 L 52.203125 0 L 43.21875 0 L 43.21875 8.296875 Q 40.140625 3.328125 35.546875 0.953125 Q 30.953125 -1.421875 24.3125 -1.421875 Q 15.921875 -1.421875 10.953125 3.296875 Q 6 8.015625 6 15.921875 Q 6 25.140625 12.171875 29.828125 Q 18.359375 34.515625 30.609375 34.515625 L 43.21875 34.515625 L 43.21875 35.40625 Q 43.21875 41.609375 39.140625 45 Q 35.0625 48.390625 27.6875 48.390625 Q 23 48.390625 18.546875 47.265625 Q 14.109375 46.140625 10.015625 43.890625 L 10.015625 52.203125 Q 14.9375 54.109375 19.578125 55.046875 Q 24.21875 56 28.609375 56 Q 40.484375 56 46.34375 49.84375 Q 52.203125 43.703125 52.203125 31.203125 z"/><path id="DejaVuSans-117" d="M 8.5 21.578125 L 8.5 54.6875 L 17.484375 54.6875 L 17.484375 21.921875 Q 17.484375 14.15625 20.5 10.265625 Q 23.53125 6.390625 29.59375 6.390625 Q 36.859375 6.390625 41.078125 11.03125 Q 45.3125 15.671875 45.3125 23.6875 L 45.3125 54.6875 L 54.296875 54.6875 L 54.296875 0 L 45.3125 0 L 45.3125 8.40625 Q 42.046875 3.421875 37.71875 1 Q 33.40625 -1.421875 27.6875 -1.421875 Q 18.265625 -1.421875 13.375 4.4375 Q 8.5 10.296875 8.5 21.578125 z M 31.109375 56 z"/><path id="DejaVuSans-115" d="M 44.28125 53.078125 L 44.28125 44.578125 Q 40.484375 46.53125 36.375 47.5 Q 32.28125 48.484375 27.875 48.484375 Q 21.1875 48.484375 17.84375 46.4375 Q 14.5 44.390625 14.5 40.28125 Q 14.5 37.15625 16.890625 35.375 Q 19.28125 33.59375 26.515625 31.984375 L 29.59375 31.296875 Q 39.15625 29.25 43.1875 25.515625 Q 47.21875 21.78125 47.21875 15.09375 Q 47.21875 7.46875 41.1875 3.015625 Q 35.15625 -1.421875 24.609375 -1.421875 Q 20.21875 -1.421875 15.453125 -0.5625 Q 10.6875 0.296875 5.421875 2 L 5.421875 11.28125 Q 10.40625 8.6875 15.234375 7.390625 Q 20.0625 6.109375 24.8125 6.109375 Q 31.15625 6.109375 34.5625 8.28125 Q 37.984375 10.453125 37.984375 14.40625 Q 37.984375 18.0625 35.515625 20.015625 Q 33.0625 21.96875 24.703125 23.78125 L 21.578125 24.515625 Q 13.234375 26.265625 9.515625 29.90625 Q 5.8125 33.546875 5.8125 39.890625 Q 5.8125 47.609375 11.28125 51.796875 Q 16.75 56 26.8125 56 Q 31.78125 56 36.171875 55.265625 Q 40.578125 54.546875 44.28125 53.078125 z"/><path id="DejaVuSans-68" d="M 19.671875 64.796875 L 19.671875 8.109375 L 31.59375 8.109375 Q 46.6875 8.109375 53.6875 14.9375 Q 60.6875 21.78125 60.6875 36.53125 Q 60.6875 51.171875 53.6875 57.984375 Q 46.6875 64.796875 31.59375 64.796875 z M 9.8125 72.90625 L 30.078125 72.90625 Q 51.265625 72.90625 61.171875 64.09375 Q 71.09375 55.28125 71.09375 36.53125 Q 71.09375 17.671875 61.125 8.828125 Q 51.171875 0 30.078125 0 L 9.8125 0 z"/><path id="DejaVuSans-114" d="M 41.109375 46.296875 Q 39.59375 47.171875 37.8125 47.578125 Q 36.03125 48 33.890625 48 Q 26.265625 48 22.1875 43.046875 Q 18.109375 38.09375 18.109375 28.8125 L 18.109375 0 L 9.078125 0 L 9.078125 54.6875 L 18.109375 54.6875 L 18.109375 46.1875 Q 20.953125 51.171875 25.484375 53.578125 Q 30.03125 56 36.53125 56 Q 37.453125 56 38.578125 55.875 Q 39.703125 55.765625 41.0625 55.515625 z"/><path id="DejaVuSans-116" d="M 18.3125 70.21875 L 18.3125 54.6875 L 36.8125 54.6875 L 36.8125 47.703125 L 18.3125 47.703125 L 18.3125 18.015625 Q 18.3125 11.328125 20.140625 9.421875 Q 21.96875 7.515625 27.59375 7.515625 L 36.8125 7.515625 L 36.8125 0 L 27.59375 0 Q 17.1875 0 13.234375 3.875 Q 9.28125 7.765625 9.28125 18.015625 L 9.28125 47.703125 L 2.6875 47.703125 L 2.6875 54.6875 L 9.28125 54.6875 L 9.28125 70.21875 z"/><path id="DejaVuSans-105" d="M 9.421875 54.6875 L 18.40625 54.6875 L 18.40625 0 L 9.421875 0 z M 9.421875 75.984375 L 18.40625 75.984375 L 18.40625 64.59375 L 9.421875 64.59375 z"/><path id="DejaVuSans-111" d="M 30.609375 48.390625 Q 23.390625 48.390625 19.1875 42.75 Q 14.984375 37.109375 14.984375 27.296875 Q 14.984375 17.484375 19.15625 11.84375 Q 23.34375 6.203125 30.609375 6.203125 Q 37.796875 6.203125 41.984375 11.859375 Q 46.1875 17.53125 46.1875 27.296875 Q 46.1875 37.015625 41.984375 42.703125 Q 37.796875 48.390625 30.609375 48.390625 z M 30.609375 56 Q 42.328125 56 49.015625 48.375 Q 55.71875 40.765625 55.71875 27.296875 Q 55.71875 13.875 49.015625 6.21875 Q 42.328125 -1.421875 30.609375 -1.421875 Q 18.84375 -1.421875 12.171875 6.21875 Q 5.515625 13.875 5.515625 27.296875 Q 5.515625 40.765625 12.171875 48.375 Q 18.84375 56 30.609375 56 z"/><path id="DejaVuSans-77" d="M 9.8125 72.90625 L 24.515625 72.90625 L 43.109375 23.296875 L 61.8125 72.90625 L 76.515625 72.90625 L 76.515625 0 L 66.890625 0 L 66.890625 64.015625 L 48.09375 14.015625 L 38.1875 14.015625 L 19.390625 64.015625 L 19.390625 0 L 9.8125 0 z"/><path id="DejaVuSans-83" d="M 53.515625 70.515625 L 53.515625 60.890625 Q 47.90625 63.578125 42.921875 64.890625 Q 37.9375 66.21875 33.296875 66.21875 Q 25.25 66.21875 20.875 63.09375 Q 16.5 59.96875 16.5 54.203125 Q 16.5 49.359375 19.40625 46.890625 Q 22.3125 44.4375 30.421875 42.921875 L 36.375 41.703125 Q 47.40625 39.59375 52.65625 34.296875 Q 57.90625 29 57.90625 20.125 Q 57.90625 9.515625 50.796875 4.046875 Q 43.703125 -1.421875 29.984375 -1.421875 Q 24.8125 -1.421875 18.96875 -0.25 Q 13.140625 0.921875 6.890625 3.21875 L 6.890625 13.375 Q 12.890625 10.015625 18.65625 8.296875 Q 24.421875 6.59375 29.984375 6.59375 Q 38.421875 6.59375 43.015625 9.90625 Q 47.609375 13.234375 47.609375 19.390625 Q 47.609375 24.75 44.3125 27.78125 Q 41.015625 30.8125 33.5 32.328125 L 27.484375 33.5 Q 16.453125 35.6875 11.515625 40.375 Q 6.59375 45.0625 6.59375 53.421875 Q 6.59375 63.09375 13.40625 68.65625 Q 20.21875 74.21875 32.171875 74.21875 Q 37.3125 74.21875 42.625 73.28125 Q 47.953125 72.359375 53.515625 70.515625 z"/><path id="DejaVuSans-99" d="M 48.78125 52.59375 L 48.78125 44.1875 Q 44.96875 46.296875 41.140625 47.34375 Q 37.3125 48.390625 33.40625 48.390625 Q 24.65625 48.390625 19.8125 42.84375 Q 14.984375 37.3125 14.984375 27.296875 Q 14.984375 17.28125 19.8125 11.734375 Q 24.65625 6.203125 33.40625 6.203125 Q 37.3125 6.203125 41.140625 7.25 Q 44.96875 8.296875 48.78125 10.40625 L 48.78125 2.09375 Q 45.015625 0.34375 40.984375 -0.53125 Q 36.96875 -1.421875 32.421875 -1.421875 Q 20.0625 -1.421875 12.78125 6.34375 Q 5.515625 14.109375 5.515625 27.296875 Q 5.515625 40.671875 12.859375 48.328125 Q 20.21875 56 33.015625 56 Q 37.15625 56 41.109375 55.140625 Q 45.0625 54.296875 48.78125 52.59375 z"/></defs><g transform="translate(7.598438 211.275469)rotate(-90)scale(0.1 -0.1)"><use xlink:href="#DejaVuSans-80"/><use x="60.24" xlink:href="#DejaVuSans-97"/><use x="121.52" xlink:href="#DejaVuSans-117"/><use x="184.898" xlink:href="#DejaVuSans-115"/><use x="236.998" xlink:href="#DejaVuSans-101"/><use x="298.521" xlink:href="#DejaVuSans-68"/><use x="375.523" xlink:href="#DejaVuSans-117"/><use x="438.902" xlink:href="#DejaVuSans-114"/><use x="480.016" xlink:href="#DejaVuSans-97"/><use x="541.295" xlink:href="#DejaVuSans-116"/><use x="580.504" xlink:href="#DejaVuSans-105"/><use x="608.287" xlink:href="#DejaVuSans-111"/><use x="669.469" xlink:href="#DejaVuSans-110"/><use x="732.848" xlink:href="#DejaVuSans-77"/><use x="819.127" xlink:href="#DejaVuSans-83"/><use x="882.604" xlink:href="#DejaVuSans-101"/><use x="944.127" xlink:href="#DejaVuSans-99"/></g></g></g><g id="line2d_11"><path d="M 56.872159 254.913995 L 60.971333 249.941852 L 65.070506 210.981384 L 69.16968 254.553695 L 73.268853 203.150859 L 77.368027 204.78422 L 81.4672 230.365538 L 85.566374 252.848274 L 89.665548 207.138182 L 93.764721 233.96854 L 97.863895 232.431259 L 101.963068 198.058616 L 106.062242 255.658616 L 110.161415 250.206072 L 114.260589 206.633761 L 118.359762 199.163536 L 122.458936 251.623253 L 126.55811 236.995063 L 130.657283 249.701651 L 134.756457 215.809408 L 138.85563 255.010075 L 142.954804 254.385555 L 147.053977 143.100817 L 151.153151 254.241435 L 155.252324 166.328173 L 159.351498 251.214912 L 163.450671 222.006572 L 167.549845 245.378048 L 171.649019 246.026589 L 175.748192 229.332677 L 179.847366 228.227756 L 183.946539 191.501151 L 188.045713 256.571376 L 192.144886 195.968874 L 196.24406 255.442435 L 200.343233 251.190892 L 204.442407 189.339349 L 208.541581 253.016414 L 212.640754 261.207239 L 216.739928 213.287306 L 220.839101 156.335847 L 224.938275 252.560033 L 229.037448 206.177381 L 233.136622 252.151693 L 237.235795 60.52 L 241.334969 218.57171 L 245.434143 244.441268 L 249.533316 193.110492 L 253.63249 251.503153 L 257.731663 207.042102 L 261.830837 208.939683 L 265.93001 243.000067 L 270.029184 177.017081 L 274.128357 173.366038 L 278.227531 189.099149 L 282.326705 222.366872 L 286.425878 251.359033 L 290.525052 205.1205 L 294.624225 242.447606 L 298.723399 178.578382 L 302.822572 223.111493 L 306.921746 253.640934 L 311.020919 253.400734 L 315.120093 180.451943 L 319.219267 214.440267 L 323.31844 251.022752 L 327.417614 209.299983 L 331.516787 223.207573 L 335.615961 227.339016 L 339.715134 258.516997 L 343.814308 260.774879 L 347.913481 175.74402 L 352.012655 260.486639 L 356.111829 216.962369 L 360.211002 255.346355 L 364.310176 251.407073 L 368.409349 231.782719 L 372.508523 255.106155 L 376.607696 245.930509 L 380.70687 226.882636 L 384.806043 195.440434 L 388.905217 254.577715 L 397.103564 192.846272 L 401.202738 254.481635 L 405.301911 230.317498 L 409.401085 248.740851 L 413.500258 245.161868 L 417.599432 234.040601 L 421.698605 240.838265 L 425.797779 236.202402 L 429.896952 243.528507 L 433.996126 240.069625 L 438.0953 256.643436 L 442.194473 203.679299 L 446.293647 161.52417 L 450.39282 242.063286 L 454.491994 262.12 L 458.591167 254.097314 L 462.690341 109.352694" clip-path="url(#pe6894d69b7)" style="fill:none;stroke:#4e4dfc;stroke-linecap:square;stroke-width:1.5"/><defs><path id="m09dada0c25" d="M 0 1.5 C 0.397805 1.5 0.77937 1.341951 1.06066 1.06066 C 1.341951 0.77937 1.5 0.397805 1.5 0 C 1.5 -0.397805 1.341951 -0.77937 1.06066 -1.06066 C 0.77937 -1.341951 0.397805 -1.5 0 -1.5 C -0.397805 -1.5 -0.77937 -1.341951 -1.06066 -1.06066 C -1.341951 -0.77937 -1.5 -0.397805 -1.5 0 C -1.5 0.397805 -1.341951 0.77937 -1.06066 1.06066 C -0.77937 1.341951 -0.397805 1.5 0 1.5 z" style="stroke:#4e4dfc"/></defs><g clip-path="url(#pe6894d69b7)"><use style="fill:#4e4dfc;stroke:#4e4dfc" x="56.872" y="254.914" xlink:href="#m09dada0c25"/><use style="fill:#4e4dfc;stroke:#4e4dfc" x="60.971" y="249.942" xlink:href="#m09dada0c25"/><use style="fill:#4e4dfc;stroke:#4e4dfc" x="65.071" y="210.981" xlink:href="#m09dada0c25"/><use style="fill:#4e4dfc;stroke:#4e4dfc" x="69.17" y="254.554" xlink:href="#m09dada0c25"/><use style="fill:#4e4dfc;stroke:#4e4dfc" x="73.269" y="203.151" xlink:href="#m09dada0c25"/><use style="fill:#4e4dfc;stroke:#4e4dfc" x="77.368" y="204.784" xlink:href="#m09dada0c25"/><use style="fill:#4e4dfc;stroke:#4e4dfc" x="81.467" y="230.366" xlink:href="#m09dada0c25"/><use style="fill:#4e4dfc;stroke:#4e4dfc" x="85.566" y="252.848" xlink:href="#m09dada0c25"/><use style="fill:#4e4dfc;stroke:#4e4dfc" x="89.666" y="207.138" xlink:href="#m09dada0c25"/><use style="fill:#4e4dfc;stroke:#4e4dfc" x="93.765" y="233.969" xlink:href="#m09dada0c25"/><use style="fill:#4e4dfc;stroke:#4e4dfc" x="97.864" y="232.431" xlink:href="#m09dada0c25"/><use style="fill:#4e4dfc;stroke:#4e4dfc" x="101.963" y="198.059" xlink:href="#m09dada0c25"/><use style="fill:#4e4dfc;stroke:#4e4dfc" x="106.062" y="255.659" xlink:href="#m09dada0c25"/><use style="fill:#4e4dfc;stroke:#4e4dfc" x="110.161" y="250.206" xlink:href="#m09dada0c25"/><use style="fill:#4e4dfc;stroke:#4e4dfc" x="114.261" y="206.634" xlink:href="#m09dada0c25"/><use style="fill:#4e4dfc;stroke:#4e4dfc" x="118.36" y="199.164" xlink:href="#m09dada0c25"/><use style="fill:#4e4dfc;stroke:#4e4dfc" x="122.459" y="251.623" xlink:href="#m09dada0c25"/><use style="fill:#4e4dfc;stroke:#4e4dfc" x="126.558" y="236.995" xlink:href="#m09dada0c25"/><use style="fill:#4e4dfc;stroke:#4e4dfc" x="130.657" y="249.702" xlink:href="#m09dada0c25"/><use style="fill:#4e4dfc;stroke:#4e4dfc" x="134.756" y="215.809" xlink:href="#m09dada0c25"/><use style="fill:#4e4dfc;stroke:#4e4dfc" x="138.856" y="255.01" xlink:href="#m09dada0c25"/><use style="fill:#4e4dfc;stroke:#4e4dfc" x="142.955" y="254.386" xlink:href="#m09dada0c25"/><use style="fill:#4e4dfc;stroke:#4e4dfc" x="147.054" y="143.101" xlink:href="#m09dada0c25"/><use style="fill:#4e4dfc;stroke:#4e4dfc" x="151.153" y="254.241" xlink:href="#m09dada0c25"/><use style="fill:#4e4dfc;stroke:#4e4dfc" x="155.252" y="166.328" xlink:href="#m09dada0c25"/><use style="fill:#4e4dfc;stroke:#4e4dfc" x="159.351" y="251.215" xlink:href="#m09dada0c25"/><use style="fill:#4e4dfc;stroke:#4e4dfc" x="163.451" y="222.007" xlink:href="#m09dada0c25"/><use style="fill:#4e4dfc;stroke:#4e4dfc" x="167.55" y="245.378" xlink:href="#m09dada0c25"/><use style="fill:#4e4dfc;stroke:#4e4dfc" x="171.649" y="246.027" xlink:href="#m09dada0c25"/><use style="fill:#4e4dfc;stroke:#4e4dfc" x="175.748" y="229.333" xlink:href="#m09dada0c25"/><use style="fill:#4e4dfc;stroke:#4e4dfc" x="179.847" y="228.228" xlink:href="#m09dada0c25"/><use style="fill:#4e4dfc;stroke:#4e4dfc" x="183.947" y="191.501" xlink:href="#m09dada0c25"/><use style="fill:#4e4dfc;stroke:#4e4dfc" x="188.046" y="256.571" xlink:href="#m09dada0c25"/><use style="fill:#4e4dfc;stroke:#4e4dfc" x="192.145" y="195.969" xlink:href="#m09dada0c25"/><use style="fill:#4e4dfc;stroke:#4e4dfc" x="196.244" y="255.442" xlink:href="#m09dada0c25"/><use style="fill:#4e4dfc;stroke:#4e4dfc" x="200.343" y="251.191" xlink:href="#m09dada0c25"/><use style="fill:#4e4dfc;stroke:#4e4dfc" x="204.442" y="189.339" xlink:href="#m09dada0c25"/><use style="fill:#4e4dfc;stroke:#4e4dfc" x="208.542" y="253.016" xlink:href="#m09dada0c25"/><use style="fill:#4e4dfc;stroke:#4e4dfc" x="212.641" y="261.207" xlink:href="#m09dada0c25"/><use style="fill:#4e4dfc;stroke:#4e4dfc" x="216.74" y="213.287" xlink:href="#m09dada0c25"/><use style="fill:#4e4dfc;stroke:#4e4dfc" x="220.839" y="156.336" xlink:href="#m09dada0c25"/><use style="fill:#4e4dfc;stroke:#4e4dfc" x="224.938" y="252.56" xlink:href="#m09dada0c25"/><use style="fill:#4e4dfc;stroke:#4e4dfc" x="229.037" y="206.177" xlink:href="#m09dada0c25"/><use style="fill:#4e4dfc;stroke:#4e4dfc" x="233.137" y="252.152" xlink:href="#m09dada0c25"/><use style="fill:#4e4dfc;stroke:#4e4dfc" x="237.236" y="60.52" xlink:href="#m09dada0c25"/><use style="fill:#4e4dfc;stroke:#4e4dfc" x="241.335" y="218.572" xlink:href="#m09dada0c25"/><use style="fill:#4e4dfc;stroke:#4e4dfc" x="245.434" y="244.441" xlink:href="#m09dada0c25"/><use style="fill:#4e4dfc;stroke:#4e4dfc" x="249.533" y="193.11" xlink:href="#m09dada0c25"/><use style="fill:#4e4dfc;stroke:#4e4dfc" x="253.632" y="251.503" xlink:href="#m09dada0c25"/><use style="fill:#4e4dfc;stroke:#4e4dfc" x="257.732" y="207.042" xlink:href="#m09dada0c25"/><use style="fill:#4e4dfc;stroke:#4e4dfc" x="261.831" y="208.94" xlink:href="#m09dada0c25"/><use style="fill:#4e4dfc;stroke:#4e4dfc" x="265.93" y="243" xlink:href="#m09dada0c25"/><use style="fill:#4e4dfc;stroke:#4e4dfc" x="270.029" y="177.017" xlink:href="#m09dada0c25"/><use style="fill:#4e4dfc;stroke:#4e4dfc" x="274.128" y="173.366" xlink:href="#m09dada0c25"/><use style="fill:#4e4dfc;stroke:#4e4dfc" x="278.228" y="189.099" xlink:href="#m09dada0c25"/><use style="fill:#4e4dfc;stroke:#4e4dfc" x="282.327" y="222.367" xlink:href="#m09dada0c25"/><use style="fill:#4e4dfc;stroke:#4e4dfc" x="286.426" y="251.359" xlink:href="#m09dada0c25"/><use style="fill:#4e4dfc;stroke:#4e4dfc" x="290.525" y="205.12" xlink:href="#m09dada0c25"/><use style="fill:#4e4dfc;stroke:#4e4dfc" x="294.624" y="242.448" xlink:href="#m09dada0c25"/><use style="fill:#4e4dfc;stroke:#4e4dfc" x="298.723" y="178.578" xlink:href="#m09dada0c25"/><use style="fill:#4e4dfc;stroke:#4e4dfc" x="302.823" y="223.111" xlink:href="#m09dada0c25"/><use style="fill:#4e4dfc;stroke:#4e4dfc" x="306.922" y="253.641" xlink:href="#m09dada0c25"/><use style="fill:#4e4dfc;stroke:#4e4dfc" x="311.021" y="253.401" xlink:href="#m09dada0c25"/><use style="fill:#4e4dfc;stroke:#4e4dfc" x="315.12" y="180.452" xlink:href="#m09dada0c25"/><use style="fill:#4e4dfc;stroke:#4e4dfc" x="319.219" y="214.44" xlink:href="#m09dada0c25"/><use style="fill:#4e4dfc;stroke:#4e4dfc" x="323.318" y="251.023" xlink:href="#m09dada0c25"/><use style="fill:#4e4dfc;stroke:#4e4dfc" x="327.418" y="209.3" xlink:href="#m09dada0c25"/><use style="fill:#4e4dfc;stroke:#4e4dfc" x="331.517" y="223.208" xlink:href="#m09dada0c25"/><use style="fill:#4e4dfc;stroke:#4e4dfc" x="335.616" y="227.339" xlink:href="#m09dada0c25"/><use style="fill:#4e4dfc;stroke:#4e4dfc" x="339.715" y="258.517" xlink:href="#m09dada0c25"/><use style="fill:#4e4dfc;stroke:#4e4dfc" x="343.814" y="260.775" xlink:href="#m09dada0c25"/><use style="fill:#4e4dfc;stroke:#4e4dfc" x="347.913" y="175.744" xlink:href="#m09dada0c25"/><use style="fill:#4e4dfc;stroke:#4e4dfc" x="352.013" y="260.487" xlink:href="#m09dada0c25"/><use style="fill:#4e4dfc;stroke:#4e4dfc" x="356.112" y="216.962" xlink:href="#m09dada0c25"/><use style="fill:#4e4dfc;stroke:#4e4dfc" x="360.211" y="255.346" xlink:href="#m09dada0c25"/><use style="fill:#4e4dfc;stroke:#4e4dfc" x="364.31" y="251.407" xlink:href="#m09dada0c25"/><use style="fill:#4e4dfc;stroke:#4e4dfc" x="368.409" y="231.783" xlink:href="#m09dada0c25"/><use style="fill:#4e4dfc;stroke:#4e4dfc" x="372.509" y="255.106" xlink:href="#m09dada0c25"/><use style="fill:#4e4dfc;stroke:#4e4dfc" x="376.608" y="245.931" xlink:href="#m09dada0c25"/><use style="fill:#4e4dfc;stroke:#4e4dfc" x="380.707" y="226.883" xlink:href="#m09dada0c25"/><use style="fill:#4e4dfc;stroke:#4e4dfc" x="384.806" y="195.44" xlink:href="#m09dada0c25"/><use style="fill:#4e4dfc;stroke:#4e4dfc" x="388.905" y="254.578" xlink:href="#m09dada0c25"/><use style="fill:#4e4dfc;stroke:#4e4dfc" x="397.104" y="192.846" xlink:href="#m09dada0c25"/><use style="fill:#4e4dfc;stroke:#4e4dfc" x="401.203" y="254.482" xlink:href="#m09dada0c25"/><use style="fill:#4e4dfc;stroke:#4e4dfc" x="405.302" y="230.317" xlink:href="#m09dada0c25"/><use style="fill:#4e4dfc;stroke:#4e4dfc" x="409.401" y="248.741" xlink:href="#m09dada0c25"/><use style="fill:#4e4dfc;stroke:#4e4dfc" x="413.5" y="245.162" xlink:href="#m09dada0c25"/><use style="fill:#4e4dfc;stroke:#4e4dfc" x="417.599" y="234.041" xlink:href="#m09dada0c25"/><use style="fill:#4e4dfc;stroke:#4e4dfc" x="421.699" y="240.838" xlink:href="#m09dada0c25"/><use style="fill:#4e4dfc;stroke:#4e4dfc" x="425.798" y="236.202" xlink:href="#m09dada0c25"/><use style="fill:#4e4dfc;stroke:#4e4dfc" x="429.897" y="243.529" xlink:href="#m09dada0c25"/><use style="fill:#4e4dfc;stroke:#4e4dfc" x="433.996" y="240.07" xlink:href="#m09dada0c25"/><use style="fill:#4e4dfc;stroke:#4e4dfc" x="438.095" y="256.643" xlink:href="#m09dada0c25"/><use style="fill:#4e4dfc;stroke:#4e4dfc" x="442.194" y="203.679" xlink:href="#m09dada0c25"/><use style="fill:#4e4dfc;stroke:#4e4dfc" x="446.294" y="161.524" xlink:href="#m09dada0c25"/><use style="fill:#4e4dfc;stroke:#4e4dfc" x="450.393" y="242.063" xlink:href="#m09dada0c25"/><use style="fill:#4e4dfc;stroke:#4e4dfc" x="454.492" y="262.12" xlink:href="#m09dada0c25"/><use style="fill:#4e4dfc;stroke:#4e4dfc" x="458.591" y="254.097" xlink:href="#m09dada0c25"/><use style="fill:#4e4dfc;stroke:#4e4dfc" x="462.69" y="109.353" xlink:href="#m09dada0c25"/></g></g><g id="line2d_12"><path d="M 56.872159 182.974045 L 60.971333 251.575213 L 65.070506 193.254612 L 69.16968 158.833928 L 73.268853 250.854612 L 77.368027 250.614412 L 81.4672 249.005071 L 85.566374 247.53985 L 89.665548 246.242769 L 93.764721 231.902819 L 97.863895 247.56387 L 101.963068 247.68397 L 106.062242 192.678132 L 110.161415 199.619917 L 114.260589 251.455113 L 118.359762 246.651109 L 122.458936 245.690309 L 126.55811 219.940851 L 134.756457 248.933011 L 138.85563 180.812244 L 142.954804 247.78005 L 147.053977 251.166872 L 151.153151 233.58422 L 155.252324 251.214912 L 159.351498 258.901318 L 163.450671 255.106155 L 167.549845 244.008907 L 171.649019 243.240267 L 175.748192 192.846272 L 179.847366 195.056113 L 183.946539 242.591726 L 188.045713 230.990058 L 192.144886 249.893812 L 196.24406 190.948691 L 200.343233 249.317331 L 204.442407 203.99156 L 208.541581 245.594229 L 212.640754 168.225755 L 216.739928 179.298982 L 220.839101 254.241435 L 224.938275 247.15553 L 229.037448 167.168874 L 233.136622 249.293311 L 237.235795 225.705655 L 241.334969 248.33251 L 245.434143 230.653778 L 249.533316 246.122669 L 253.63249 242.663786 L 257.731663 124.941685 L 261.830837 219.07613 L 265.93001 199.451776 L 270.029184 182.805905 L 274.128357 152.852944 L 278.227531 230.437598 L 282.326705 176.34452 L 286.425878 178.242102 L 290.525052 216.722168 L 294.624225 237.067123 L 298.723399 206.345521 L 302.822572 250.013912 L 306.921746 213.815746 L 311.020919 199.091476 L 315.120093 177.473461 L 319.219267 233.00774 L 323.31844 165.367373 L 327.417614 252.752193 L 331.516787 239.829425 L 335.615961 175.88814 L 339.715134 251.935513 L 343.814308 244.321168 L 347.913481 202.093978 L 352.012655 247.78005 L 356.111829 170.051276 L 360.211002 250.782552 L 364.310176 195.680634 L 368.409349 217.154529 L 372.508523 256.355196 L 376.607696 157.993228 L 380.70687 136.975713 L 384.806043 178.338182 L 388.905217 231.854779 L 393.00439 252.031593 L 397.103564 168.105655 L 401.202738 246.987389 L 405.301911 249.749691 L 409.401085 245.354028 L 413.500258 235.073461 L 417.599432 183.910826 L 421.698605 184.295146 L 425.797779 250.518332 L 429.896952 251.479133 L 433.996126 115.069458 L 438.0953 207.666622 L 442.194473 185.448107 L 446.293647 252.343853 L 450.39282 220.036931 L 454.491994 251.407073 L 458.591167 203.89548 L 462.690341 186.240767" clip-path="url(#pe6894d69b7)" style="fill:none;stroke:#ff4d27;stroke-linecap:square;stroke-width:1.5"/><defs><path id="mc4bac55068" d="M 0 1.5 C 0.397805 1.5 0.77937 1.341951 1.06066 1.06066 C 1.341951 0.77937 1.5 0.397805 1.5 0 C 1.5 -0.397805 1.341951 -0.77937 1.06066 -1.06066 C 0.77937 -1.341951 0.397805 -1.5 0 -1.5 C -0.397805 -1.5 -0.77937 -1.341951 -1.06066 -1.06066 C -1.341951 -0.77937 -1.5 -0.397805 -1.5 0 C -1.5 0.397805 -1.341951 0.77937 -1.06066 1.06066 C -0.77937 1.341951 -0.397805 1.5 0 1.5 z" style="stroke:#ff4d27"/></defs><g clip-path="url(#pe6894d69b7)"><use style="fill:#ff4d27;stroke:#ff4d27" x="56.872" y="182.974" xlink:href="#mc4bac55068"/><use style="fill:#ff4d27;stroke:#ff4d27" x="60.971" y="251.575" xlink:href="#mc4bac55068"/><use style="fill:#ff4d27;stroke:#ff4d27" x="65.071" y="193.255" xlink:href="#mc4bac55068"/><use style="fill:#ff4d27;stroke:#ff4d27" x="69.17" y="158.834" xlink:href="#mc4bac55068"/><use style="fill:#ff4d27;stroke:#ff4d27" x="73.269" y="250.855" xlink:href="#mc4bac55068"/><use style="fill:#ff4d27;stroke:#ff4d27" x="77.368" y="250.614" xlink:href="#mc4bac55068"/><use style="fill:#ff4d27;stroke:#ff4d27" x="81.467" y="249.005" xlink:href="#mc4bac55068"/><use style="fill:#ff4d27;stroke:#ff4d27" x="85.566" y="247.54" xlink:href="#mc4bac55068"/><use style="fill:#ff4d27;stroke:#ff4d27" x="89.666" y="246.243" xlink:href="#mc4bac55068"/><use style="fill:#ff4d27;stroke:#ff4d27" x="93.765" y="231.903" xlink:href="#mc4bac55068"/><use style="fill:#ff4d27;stroke:#ff4d27" x="97.864" y="247.564" xlink:href="#mc4bac55068"/><use style="fill:#ff4d27;stroke:#ff4d27" x="101.963" y="247.684" xlink:href="#mc4bac55068"/><use style="fill:#ff4d27;stroke:#ff4d27" x="106.062" y="192.678" xlink:href="#mc4bac55068"/><use style="fill:#ff4d27;stroke:#ff4d27" x="110.161" y="199.62" xlink:href="#mc4bac55068"/><use style="fill:#ff4d27;stroke:#ff4d27" x="114.261" y="251.455" xlink:href="#mc4bac55068"/><use style="fill:#ff4d27;stroke:#ff4d27" x="118.36" y="246.651" xlink:href="#mc4bac55068"/><use style="fill:#ff4d27;stroke:#ff4d27" x="122.459" y="245.69" xlink:href="#mc4bac55068"/><use style="fill:#ff4d27;stroke:#ff4d27" x="126.558" y="219.941" xlink:href="#mc4bac55068"/><use style="fill:#ff4d27;stroke:#ff4d27" x="134.756" y="248.933" xlink:href="#mc4bac55068"/><use style="fill:#ff4d27;stroke:#ff4d27" x="138.856" y="180.812" xlink:href="#mc4bac55068"/><use style="fill:#ff4d27;stroke:#ff4d27" x="142.955" y="247.78" xlink:href="#mc4bac55068"/><use style="fill:#ff4d27;stroke:#ff4d27" x="147.054" y="251.167" xlink:href="#mc4bac55068"/><use style="fill:#ff4d27;stroke:#ff4d27" x="151.153" y="233.584" xlink:href="#mc4bac55068"/><use style="fill:#ff4d27;stroke:#ff4d27" x="155.252" y="251.215" xlink:href="#mc4bac55068"/><use style="fill:#ff4d27;stroke:#ff4d27" x="159.351" y="258.901" xlink:href="#mc4bac55068"/><use style="fill:#ff4d27;stroke:#ff4d27" x="163.451" y="255.106" xlink:href="#mc4bac55068"/><use style="fill:#ff4d27;stroke:#ff4d27" x="167.55" y="244.009" xlink:href="#mc4bac55068"/><use style="fill:#ff4d27;stroke:#ff4d27" x="171.649" y="243.24" xlink:href="#mc4bac55068"/><use style="fill:#ff4d27;stroke:#ff4d27" x="175.748" y="192.846" xlink:href="#mc4bac55068"/><use style="fill:#ff4d27;stroke:#ff4d27" x="179.847" y="195.056" xlink:href="#mc4bac55068"/><use style="fill:#ff4d27;stroke:#ff4d27" x="183.947" y="242.592" xlink:href="#mc4bac55068"/><use style="fill:#ff4d27;stroke:#ff4d27" x="188.046" y="230.99" xlink:href="#mc4bac55068"/><use style="fill:#ff4d27;stroke:#ff4d27" x="192.145" y="249.894" xlink:href="#mc4bac55068"/><use style="fill:#ff4d27;stroke:#ff4d27" x="196.244" y="190.949" xlink:href="#mc4bac55068"/><use style="fill:#ff4d27;stroke:#ff4d27" x="200.343" y="249.317" xlink:href="#mc4bac55068"/><use style="fill:#ff4d27;stroke:#ff4d27" x="204.442" y="203.992" xlink:href="#mc4bac55068"/><use style="fill:#ff4d27;stroke:#ff4d27" x="208.542" y="245.594" xlink:href="#mc4bac55068"/><use style="fill:#ff4d27;stroke:#ff4d27" x="212.641" y="168.226" xlink:href="#mc4bac55068"/><use style="fill:#ff4d27;stroke:#ff4d27" x="216.74" y="179.299" xlink:href="#mc4bac55068"/><use style="fill:#ff4d27;stroke:#ff4d27" x="220.839" y="254.241" xlink:href="#mc4bac55068"/><use style="fill:#ff4d27;stroke:#ff4d27" x="224.938" y="247.156" xlink:href="#mc4bac55068"/><use style="fill:#ff4d27;stroke:#ff4d27" x="229.037" y="167.169" xlink:href="#mc4bac55068"/><use style="fill:#ff4d27;stroke:#ff4d27" x="233.137" y="249.293" xlink:href="#mc4bac55068"/><use style="fill:#ff4d27;stroke:#ff4d27" x="237.236" y="225.706" xlink:href="#mc4bac55068"/><use style="fill:#ff4d27;stroke:#ff4d27" x="241.335" y="248.333" xlink:href="#mc4bac55068"/><use style="fill:#ff4d27;stroke:#ff4d27" x="245.434" y="230.654" xlink:href="#mc4bac55068"/><use style="fill:#ff4d27;stroke:#ff4d27" x="249.533" y="246.123" xlink:href="#mc4bac55068"/><use style="fill:#ff4d27;stroke:#ff4d27" x="253.632" y="242.664" xlink:href="#mc4bac55068"/><use style="fill:#ff4d27;stroke:#ff4d27" x="257.732" y="124.942" xlink:href="#mc4bac55068"/><use style="fill:#ff4d27;stroke:#ff4d27" x="261.831" y="219.076" xlink:href="#mc4bac55068"/><use style="fill:#ff4d27;stroke:#ff4d27" x="265.93" y="199.452" xlink:href="#mc4bac55068"/><use style="fill:#ff4d27;stroke:#ff4d27" x="270.029" y="182.806" xlink:href="#mc4bac55068"/><use style="fill:#ff4d27;stroke:#ff4d27" x="274.128" y="152.853" xlink:href="#mc4bac55068"/><use style="fill:#ff4d27;stroke:#ff4d27" x="278.228" y="230.438" xlink:href="#mc4bac55068"/><use style="fill:#ff4d27;stroke:#ff4d27" x="282.327" y="176.345" xlink:href="#mc4bac55068"/><use style="fill:#ff4d27;stroke:#ff4d27" x="286.426" y="178.242" xlink:href="#mc4bac55068"/><use style="fill:#ff4d27;stroke:#ff4d27" x="290.525" y="216.722" xlink:href="#mc4bac55068"/><use style="fill:#ff4d27;stroke:#ff4d27" x="294.624" y="237.067" xlink:href="#mc4bac55068"/><use style="fill:#ff4d27;stroke:#ff4d27" x="298.723" y="206.346" xlink:href="#mc4bac55068"/><use style="fill:#ff4d27;stroke:#ff4d27" x="302.823" y="250.014" xlink:href="#mc4bac55068"/><use style="fill:#ff4d27;stroke:#ff4d27" x="306.922" y="213.816" xlink:href="#mc4bac55068"/><use style="fill:#ff4d27;stroke:#ff4d27" x="311.021" y="199.091" xlink:href="#mc4bac55068"/><use style="fill:#ff4d27;stroke:#ff4d27" x="315.12" y="177.473" xlink:href="#mc4bac55068"/><use style="fill:#ff4d27;stroke:#ff4d27" x="319.219" y="233.008" xlink:href="#mc4bac55068"/><use style="fill:#ff4d27;stroke:#ff4d27" x="323.318" y="165.367" xlink:href="#mc4bac55068"/><use style="fill:#ff4d27;stroke:#ff4d27" x="327.418" y="252.752" xlink:href="#mc4bac55068"/><use style="fill:#ff4d27;stroke:#ff4d27" x="331.517" y="239.829" xlink:href="#mc4bac55068"/><use style="fill:#ff4d27;stroke:#ff4d27" x="335.616" y="175.888" xlink:href="#mc4bac55068"/><use style="fill:#ff4d27;stroke:#ff4d27" x="339.715" y="251.936" xlink:href="#mc4bac55068"/><use style="fill:#ff4d27;stroke:#ff4d27" x="343.814" y="244.321" xlink:href="#mc4bac55068"/><use style="fill:#ff4d27;stroke:#ff4d27" x="347.913" y="202.094" xlink:href="#mc4bac55068"/><use style="fill:#ff4d27;stroke:#ff4d27" x="352.013" y="247.78" xlink:href="#mc4bac55068"/><use style="fill:#ff4d27;stroke:#ff4d27" x="356.112" y="170.051" xlink:href="#mc4bac55068"/><use style="fill:#ff4d27;stroke:#ff4d27" x="360.211" y="250.783" xlink:href="#mc4bac55068"/><use style="fill:#ff4d27;stroke:#ff4d27" x="364.31" y="195.681" xlink:href="#mc4bac55068"/><use style="fill:#ff4d27;stroke:#ff4d27" x="368.409" y="217.155" xlink:href="#mc4bac55068"/><use style="fill:#ff4d27;stroke:#ff4d27" x="372.509" y="256.355" xlink:href="#mc4bac55068"/><use style="fill:#ff4d27;stroke:#ff4d27" x="376.608" y="157.993" xlink:href="#mc4bac55068"/><use style="fill:#ff4d27;stroke:#ff4d27" x="380.707" y="136.976" xlink:href="#mc4bac55068"/><use style="fill:#ff4d27;stroke:#ff4d27" x="384.806" y="178.338" xlink:href="#mc4bac55068"/><use style="fill:#ff4d27;stroke:#ff4d27" x="388.905" y="231.855" xlink:href="#mc4bac55068"/><use style="fill:#ff4d27;stroke:#ff4d27" x="393.004" y="252.032" xlink:href="#mc4bac55068"/><use style="fill:#ff4d27;stroke:#ff4d27" x="397.104" y="168.106" xlink:href="#mc4bac55068"/><use style="fill:#ff4d27;stroke:#ff4d27" x="401.203" y="246.987" xlink:href="#mc4bac55068"/><use style="fill:#ff4d27;stroke:#ff4d27" x="405.302" y="249.75" xlink:href="#mc4bac55068"/><use style="fill:#ff4d27;stroke:#ff4d27" x="409.401" y="245.354" xlink:href="#mc4bac55068"/><use style="fill:#ff4d27;stroke:#ff4d27" x="413.5" y="235.073" xlink:href="#mc4bac55068"/><use style="fill:#ff4d27;stroke:#ff4d27" x="417.599" y="183.911" xlink:href="#mc4bac55068"/><use style="fill:#ff4d27;stroke:#ff4d27" x="421.699" y="184.295" xlink:href="#mc4bac55068"/><use style="fill:#ff4d27;stroke:#ff4d27" x="425.798" y="250.518" xlink:href="#mc4bac55068"/><use style="fill:#ff4d27;stroke:#ff4d27" x="429.897" y="251.479" xlink:href="#mc4bac55068"/><use style="fill:#ff4d27;stroke:#ff4d27" x="433.996" y="115.069" xlink:href="#mc4bac55068"/><use style="fill:#ff4d27;stroke:#ff4d27" x="438.095" y="207.667" xlink:href="#mc4bac55068"/><use style="fill:#ff4d27;stroke:#ff4d27" x="442.194" y="185.448" xlink:href="#mc4bac55068"/><use style="fill:#ff4d27;stroke:#ff4d27" x="446.294" y="252.344" xlink:href="#mc4bac55068"/><use style="fill:#ff4d27;stroke:#ff4d27" x="450.393" y="220.037" xlink:href="#mc4bac55068"/><use style="fill:#ff4d27;stroke:#ff4d27" x="454.492" y="251.407" xlink:href="#mc4bac55068"/><use style="fill:#ff4d27;stroke:#ff4d27" x="458.591" y="203.895" xlink:href="#mc4bac55068"/><use style="fill:#ff4d27;stroke:#ff4d27" x="462.69" y="186.241" xlink:href="#mc4bac55068"/></g></g><g id="patch_3"><path d="M 36.58125 272.2 L 36.58125 50.44" style="fill:none;stroke:#000;stroke-linecap:square;stroke-linejoin:miter;stroke-width:.8"/></g><g id="patch_4"><path d="M 482.98125 272.2 L 482.98125 50.44" style="fill:none;stroke:#000;stroke-linecap:square;stroke-linejoin:miter;stroke-width:.8"/></g><g id="patch_5"><path d="M 36.58125 272.2 L 482.98125 272.2" style="fill:none;stroke:#000;stroke-linecap:square;stroke-linejoin:miter;stroke-width:.8"/></g><g id="patch_6"><path d="M 36.58125 50.44 L 482.98125 50.44" style="fill:none;stroke:#000;stroke-linecap:square;stroke-linejoin:miter;stroke-width:.8"/></g><g id="legend_1"><g id="patch_7"><path d="M 118.475781 32.9125 L 401.086719 32.9125 Q 403.086719 32.9125 403.086719 30.9125 L 403.086719 2 Q 403.086719 0 401.086719 0 L 118.475781 0 Q 116.475781 0 116.475781 2 L 116.475781 30.9125 Q 116.475781 32.9125 118.475781 32.9125 z" style="fill:#fff;opacity:.8;stroke:#ccc;stroke-linejoin:miter"/></g><g id="line2d_13"><path d="M 120.475781 8.098438 L 140.475781 8.098438" style="fill:none;stroke:#4e4dfc;stroke-linecap:square;stroke-width:1.5"/></g><g id="line2d_14"><g><use style="fill:#4e4dfc;stroke:#4e4dfc" x="130.476" y="8.098" xlink:href="#m09dada0c25"/></g></g><g id="text_13"><defs><path id="DejaVuSans-95" d="M 50.984375 -16.609375 L 50.984375 -23.578125 L -0.984375 -23.578125 L -0.984375 -16.609375 z"/><path id="DejaVuSans-66" d="M 19.671875 34.8125 L 19.671875 8.109375 L 35.5 8.109375 Q 43.453125 8.109375 47.28125 11.40625 Q 51.125 14.703125 51.125 21.484375 Q 51.125 28.328125 47.28125 31.5625 Q 43.453125 34.8125 35.5 34.8125 z M 19.671875 64.796875 L 19.671875 42.828125 L 34.28125 42.828125 Q 41.5 42.828125 45.03125 45.53125 Q 48.578125 48.25 48.578125 53.8125 Q 48.578125 59.328125 45.03125 62.0625 Q 41.5 64.796875 34.28125 64.796875 z M 9.8125 72.90625 L 35.015625 72.90625 Q 46.296875 72.90625 52.390625 68.21875 Q 58.5 63.53125 58.5 54.890625 Q 58.5 48.1875 55.375 44.234375 Q 52.25 40.28125 46.1875 39.3125 Q 53.46875 37.75 57.5 32.78125 Q 61.53125 27.828125 61.53125 20.40625 Q 61.53125 10.640625 54.890625 5.3125 Q 48.25 0 35.984375 0 L 9.8125 0 z"/><path id="DejaVuSans-118" d="M 2.984375 54.6875 L 12.5 54.6875 L 29.59375 8.796875 L 46.6875 54.6875 L 56.203125 54.6875 L 35.6875 0 L 23.484375 0 z"/><path id="DejaVuSans-121" d="M 32.171875 -5.078125 Q 28.375 -14.84375 24.75 -17.8125 Q 21.140625 -20.796875 15.09375 -20.796875 L 7.90625 -20.796875 L 7.90625 -13.28125 L 13.1875 -13.28125 Q 16.890625 -13.28125 18.9375 -11.515625 Q 21 -9.765625 23.484375 -3.21875 L 25.09375 0.875 L 2.984375 54.6875 L 12.5 54.6875 L 29.59375 11.921875 L 46.6875 54.6875 L 56.203125 54.6875 z"/><path id="DejaVuSans-109" d="M 52 44.1875 Q 55.375 50.25 60.0625 53.125 Q 64.75 56 71.09375 56 Q 79.640625 56 84.28125 50.015625 Q 88.921875 44.046875 88.921875 33.015625 L 88.921875 0 L 79.890625 0 L 79.890625 32.71875 Q 79.890625 40.578125 77.09375 44.375 Q 74.3125 48.1875 68.609375 48.1875 Q 61.625 48.1875 57.5625 43.546875 Q 53.515625 38.921875 53.515625 30.90625 L 53.515625 0 L 44.484375 0 L 44.484375 32.71875 Q 44.484375 40.625 41.703125 44.40625 Q 38.921875 48.1875 33.109375 48.1875 Q 26.21875 48.1875 22.15625 43.53125 Q 18.109375 38.875 18.109375 30.90625 L 18.109375 0 L 9.078125 0 L 9.078125 54.6875 L 18.109375 54.6875 L 18.109375 46.1875 Q 21.1875 51.21875 25.484375 53.609375 Q 29.78125 56 35.6875 56 Q 41.65625 56 45.828125 52.96875 Q 50 49.953125 52 44.1875 z"/><path id="DejaVuSans-108" d="M 9.421875 75.984375 L 18.40625 75.984375 L 18.40625 0 L 9.421875 0 z"/><path id="DejaVuSans-92" d="M 8.296875 72.90625 L 33.6875 -9.28125 L 25.390625 -9.28125 L 0 72.90625 z"/></defs><g transform="translate(148.475781 11.598438)scale(0.1 -0.1)"><use xlink:href="#DejaVuSans-97"/><use x="61.279" xlink:href="#DejaVuSans-95"/><use x="111.279" xlink:href="#DejaVuSans-95"/><use x="161.279" xlink:href="#DejaVuSans-50"/><use x="224.902" xlink:href="#DejaVuSans-48"/><use x="288.525" xlink:href="#DejaVuSans-77"/><use x="374.805" xlink:href="#DejaVuSans-66"/><use x="443.408" xlink:href="#DejaVuSans-95"/><use x="493.408" xlink:href="#DejaVuSans-95"/><use x="543.408" xlink:href="#DejaVuSans-110"/><use x="606.787" xlink:href="#DejaVuSans-111"/><use x="667.969" xlink:href="#DejaVuSans-115"/><use x="720.068" xlink:href="#DejaVuSans-117"/><use x="783.447" xlink:href="#DejaVuSans-114"/><use x="824.561" xlink:href="#DejaVuSans-118"/><use x="883.74" xlink:href="#DejaVuSans-105"/><use x="911.523" xlink:href="#DejaVuSans-118"/><use x="970.703" xlink:href="#DejaVuSans-101"/><use x="1032.227" xlink:href="#DejaVuSans-95"/><use x="1082.227" xlink:href="#DejaVuSans-95"/><use x="1132.227" xlink:href="#DejaVuSans-48"/><use x="1195.85" xlink:href="#DejaVuSans-46"/><use x="1227.637" xlink:href="#DejaVuSans-121"/><use x="1286.816" xlink:href="#DejaVuSans-97"/><use x="1348.096" xlink:href="#DejaVuSans-109"/><use x="1445.508" xlink:href="#DejaVuSans-108"/><use x="1473.291" xlink:href="#DejaVuSans-92"/><use x="1506.982" xlink:href="#DejaVuSans-80"/><use x="1567.223" xlink:href="#DejaVuSans-97"/><use x="1628.502" xlink:href="#DejaVuSans-117"/><use x="1691.881" xlink:href="#DejaVuSans-115"/><use x="1743.98" xlink:href="#DejaVuSans-101"/><use x="1805.504" xlink:href="#DejaVuSans-68"/><use x="1882.506" xlink:href="#DejaVuSans-117"/><use x="1945.885" xlink:href="#DejaVuSans-114"/><use x="1986.998" xlink:href="#DejaVuSans-97"/><use x="2048.277" xlink:href="#DejaVuSans-116"/><use x="2087.486" xlink:href="#DejaVuSans-105"/><use x="2115.27" xlink:href="#DejaVuSans-111"/><use x="2176.451" xlink:href="#DejaVuSans-110"/><use x="2239.83" xlink:href="#DejaVuSans-77"/><use x="2326.109" xlink:href="#DejaVuSans-83"/><use x="2389.586" xlink:href="#DejaVuSans-101"/><use x="2451.109" xlink:href="#DejaVuSans-99"/></g></g><g id="line2d_15"><path d="M 120.475781 23.054688 L 140.475781 23.054688" style="fill:none;stroke:#ff4d27;stroke-linecap:square;stroke-width:1.5"/></g><g id="line2d_16"><g><use style="fill:#ff4d27;stroke:#ff4d27" x="130.476" y="23.055" xlink:href="#mc4bac55068"/></g></g><g id="text_14"><defs><path id="DejaVuSans-51" d="M 40.578125 39.3125 Q 47.65625 37.796875 51.625 33 Q 55.609375 28.21875 55.609375 21.1875 Q 55.609375 10.40625 48.1875 4.484375 Q 40.765625 -1.421875 27.09375 -1.421875 Q 22.515625 -1.421875 17.65625 -0.515625 Q 12.796875 0.390625 7.625 2.203125 L 7.625 11.71875 Q 11.71875 9.328125 16.59375 8.109375 Q 21.484375 6.890625 26.8125 6.890625 Q 36.078125 6.890625 40.9375 10.546875 Q 45.796875 14.203125 45.796875 21.1875 Q 45.796875 27.640625 41.28125 31.265625 Q 36.765625 34.90625 28.71875 34.90625 L 20.21875 34.90625 L 20.21875 43.015625 L 29.109375 43.015625 Q 36.375 43.015625 40.234375 45.921875 Q 44.09375 48.828125 44.09375 54.296875 Q 44.09375 59.90625 40.109375 62.90625 Q 36.140625 65.921875 28.71875 65.921875 Q 24.65625 65.921875 20.015625 65.03125 Q 15.375 64.15625 9.8125 62.3125 L 9.8125 71.09375 Q 15.4375 72.65625 20.34375 73.4375 Q 25.25 74.21875 29.59375 74.21875 Q 40.828125 74.21875 47.359375 69.109375 Q 53.90625 64.015625 53.90625 55.328125 Q 53.90625 49.265625 50.4375 45.09375 Q 46.96875 40.921875 40.578125 39.3125 z"/></defs><g transform="translate(148.475781 26.554688)scale(0.1 -0.1)"><use xlink:href="#DejaVuSans-97"/><use x="61.279" xlink:href="#DejaVuSans-95"/><use x="111.279" xlink:href="#DejaVuSans-95"/><use x="161.279" xlink:href="#DejaVuSans-51"/><use x="224.902" xlink:href="#DejaVuSans-48"/><use x="288.525" xlink:href="#DejaVuSans-77"/><use x="374.805" xlink:href="#DejaVuSans-66"/><use x="443.408" xlink:href="#DejaVuSans-95"/><use x="493.408" xlink:href="#DejaVuSans-95"/><use x="543.408" xlink:href="#DejaVuSans-110"/><use x="606.787" xlink:href="#DejaVuSans-111"/><use x="667.969" xlink:href="#DejaVuSans-115"/><use x="720.068" xlink:href="#DejaVuSans-117"/><use x="783.447" xlink:href="#DejaVuSans-114"/><use x="824.561" xlink:href="#DejaVuSans-118"/><use x="883.74" xlink:href="#DejaVuSans-105"/><use x="911.523" xlink:href="#DejaVuSans-118"/><use x="970.703" xlink:href="#DejaVuSans-101"/><use x="1032.227" xlink:href="#DejaVuSans-95"/><use x="1082.227" xlink:href="#DejaVuSans-95"/><use x="1132.227" xlink:href="#DejaVuSans-48"/><use x="1195.85" xlink:href="#DejaVuSans-46"/><use x="1227.637" xlink:href="#DejaVuSans-121"/><use x="1286.816" xlink:href="#DejaVuSans-97"/><use x="1348.096" xlink:href="#DejaVuSans-109"/><use x="1445.508" xlink:href="#DejaVuSans-108"/><use x="1473.291" xlink:href="#DejaVuSans-92"/><use x="1506.982" xlink:href="#DejaVuSans-80"/><use x="1567.223" xlink:href="#DejaVuSans-97"/><use x="1628.502" xlink:href="#DejaVuSans-117"/><use x="1691.881" xlink:href="#DejaVuSans-115"/><use x="1743.98" xlink:href="#DejaVuSans-101"/><use x="1805.504" xlink:href="#DejaVuSans-68"/><use x="1882.506" xlink:href="#DejaVuSans-117"/><use x="1945.885" xlink:href="#DejaVuSans-114"/><use x="1986.998" xlink:href="#DejaVuSans-97"/><use x="2048.277" xlink:href="#DejaVuSans-116"/><use x="2087.486" xlink:href="#DejaVuSans-105"/><use x="2115.27" xlink:href="#DejaVuSans-111"/><use x="2176.451" xlink:href="#DejaVuSans-110"/><use x="2239.83" xlink:href="#DejaVuSans-77"/><use x="2326.109" xlink:href="#DejaVuSans-83"/><use x="2389.586" xlink:href="#DejaVuSans-101"/><use x="2451.109" xlink:href="#DejaVuSans-99"/></g></g></g></g></g><defs><clipPath id="pe6894d69b7"><rect width="446.4" height="221.76" x="36.581" y="50.44"/></clipPath></defs></svg>